<svg class="icon" style="width: 1em;height: 1em;vertical-align: middle;fill: currentColor;overflow: hidden;" viewBox="0 0 1024 1024" version="1.1" xmlns="http://www.w3.org/2000/svg" p-id="12252"><path d="M575.872 237.44c70.4-38.72 164.608-48.576 284.544-29.632 5.12 29.184 9.472 72.96 6.272 121.984-4.352 67.072-22.592 139.84-68.352 198.656l-7.04 9.024-1.536 11.264v0.064l-0.128 0.64-0.512 3.2a397.44 397.44 0 0 1-55.232 137.216l-35.84-72.064-40.96 30.72c-74.688 56.064-191.872 76.8-273.088 76.8h-42.624V768c0 32.832-0.192 55.168-4.48 76.928a158.72 158.72 0 0 1-6.336 22.656L159.424 696.32c13.696-3.84 27.904-6.784 41.728-8.896a440.384 440.384 0 0 1 54.208-4.8h43.328V640c0-115.072 36.864-170.368 78.08-232.192L392.64 384 316.928 270.464a413.312 413.312 0 0 1 75.328-17.536A501.248 501.248 0 0 1 467.84 247.68c8.576 0.064 16.384 0.512 23.36 1.088 3.84 32.768 15.936 70.144 36.736 105.6 30.976 52.736 82.688 104.192 161.024 133.568l39.936 14.976 29.952-79.872-39.936-14.976c-58.24-21.824-95.36-59.264-117.376-96.832a190.08 190.08 0 0 1-25.728-73.856z m296.384 334.72c54.848-75.072 74.752-162.56 79.616-236.8 4.992-77.12-6.016-143.872-14.72-175.872l-6.976-25.856-26.24-4.928c-146.176-27.456-276.16-20.992-377.856 38.848a326.4 326.4 0 0 0-57.088-5.248 586.24 586.24 0 0 0-88.896 6.144 497.792 497.792 0 0 0-85.504 19.392c-24.512 8.256-50.88 20.096-68.736 37.952l-24.768 24.768 89.088 133.568c-34.752 53.568-68.288 115.648-75.456 215.68-8.064 0.768-17.024 1.92-26.496 3.328-36.608 5.632-86.72 17.472-126.528 44.032l-43.328 28.8 329.6 329.6 28.864-43.264c24.064-36.032 37.12-67.84 43.712-100.608 3.52-17.664 4.992-35.136 5.632-52.48 72.768-5.12 163.712-23.296 239.488-65.024l47.744 96 41.92-41.984c50.752-50.688 80.256-110.08 97.024-155.84a483.136 483.136 0 0 0 19.904-70.272z m-125.568-334.08l60.48 60.48-60.48 60.416-60.48-60.416 60.48-60.48z" p-id="12253"></path></svg>